<svg xmlns="http://www.w3.org/2000/svg" xmlns:xlink="http://www.w3.org/1999/xlink" width="500" zoomAndPan="magnify" viewBox="0 0 375 374.999991" height="500" preserveAspectRatio="xMidYMid meet" version="1.0"><defs><clipPath id="31d9d43752"><path d="M 90 102 L 282 102 L 282 284 L 90 284 Z M 90 102 " clip-rule="nonzero"/></clipPath><clipPath id="e34b5a53ab"><path d="M 88.511719 118.875 L 269.832031 100.480469 L 286.863281 268.367188 L 105.546875 286.761719 Z M 88.511719 118.875 " clip-rule="nonzero"/></clipPath><clipPath id="7d515e4ecd"><path d="M 269.472656 100.515625 L 88.152344 118.910156 L 105.183594 286.800781 L 286.503906 268.40625 Z M 269.472656 100.515625 " clip-rule="nonzero"/></clipPath><clipPath id="54f9030ae7"><path d="M 93 105 L 278 105 L 278 281 L 93 281 Z M 93 105 " clip-rule="nonzero"/></clipPath><clipPath id="e618406d79"><path d="M 88.511719 118.875 L 269.832031 100.480469 L 286.863281 268.367188 L 105.546875 286.761719 Z M 88.511719 118.875 " clip-rule="nonzero"/></clipPath><clipPath id="0081fa1e45"><path d="M 269.472656 100.515625 L 88.152344 118.910156 L 105.183594 286.800781 L 286.503906 268.40625 Z M 269.472656 100.515625 " clip-rule="nonzero"/></clipPath><clipPath id="7ca5e2f813"><path d="M 139.957031 162 L 154 162 L 154 166 L 139.957031 166 Z M 139.957031 162 " clip-rule="nonzero"/></clipPath><clipPath id="3f60714983"><path d="M 173 128.882812 L 177 128.882812 L 177 143 L 173 143 Z M 173 128.882812 " clip-rule="nonzero"/></clipPath><clipPath id="9932b73b58"><path d="M 198 210 L 202 210 L 202 224.132812 L 198 224.132812 Z M 198 210 " clip-rule="nonzero"/></clipPath><clipPath id="0d9b1c22fc"><path d="M 221 187 L 235.207031 187 L 235.207031 191 L 221 191 Z M 221 187 " clip-rule="nonzero"/></clipPath></defs><g clip-path="url(#31d9d43752)"><g clip-path="url(#e34b5a53ab)"><g clip-path="url(#7d515e4ecd)"><path fill="#ffffff" d="M 248.675781 102.667969 C 260.125 101.507812 270.417969 109.902344 271.582031 121.347656 L 280.976562 213.964844 C 282.136719 225.410156 273.742188 235.703125 262.289062 236.863281 L 167.761719 246.453125 L 133.847656 282.53125 C 132.734375 283.714844 131.035156 284.136719 129.5 283.617188 C 127.964844 283.097656 126.871094 281.726562 126.707031 280.113281 L 123.746094 250.917969 L 122.554688 251.039062 C 111.105469 252.203125 100.8125 243.808594 99.648438 232.359375 L 90.253906 139.742188 C 89.09375 128.296875 97.492188 118.007812 108.941406 116.84375 Z M 248.675781 102.667969 " fill-opacity="1" fill-rule="nonzero"/></g></g></g><g clip-path="url(#54f9030ae7)"><g clip-path="url(#e618406d79)"><g clip-path="url(#0081fa1e45)"><path fill="#5271ff" d="M 249.019531 106.046875 C 258.65625 105.070312 267.222656 112.058594 268.203125 121.691406 L 277.597656 214.308594 C 278.574219 223.941406 271.582031 232.507812 261.945312 233.484375 L 166.15625 243.203125 L 131.371094 280.207031 C 130.933594 280.671875 130.152344 280.40625 130.085938 279.773438 L 126.78125 247.199219 L 122.210938 247.660156 C 112.578125 248.640625 104.007812 241.652344 103.027344 232.019531 L 93.632812 139.402344 C 92.65625 129.769531 99.648438 121.199219 109.285156 120.222656 Z M 249.167969 107.53125 L 109.433594 121.707031 C 100.59375 122.601562 94.21875 130.414062 95.113281 139.25 L 104.511719 231.867188 C 105.40625 240.703125 113.222656 247.078125 122.0625 246.179688 L 127.375 245.640625 C 127.785156 245.597656 128.148438 245.898438 128.191406 246.308594 L 131.40625 277.996094 L 165.261719 241.980469 C 165.382812 241.851562 165.550781 241.769531 165.730469 241.75 L 261.796875 232.003906 C 270.636719 231.105469 277.011719 223.296875 276.113281 214.457031 L 266.71875 121.839844 C 265.820312 113.003906 258.007812 106.632812 249.167969 107.53125 Z M 249.167969 107.53125 " fill-opacity="1" fill-rule="nonzero"/></g></g></g><path fill="#5271ff" d="M 190.164062 192.949219 L 173.933594 209.175781 C 168.683594 214.425781 160.167969 214.425781 154.917969 209.175781 C 149.664062 203.925781 149.664062 195.410156 154.917969 190.15625 L 171.144531 173.929688 C 176.464844 168.847656 184.84375 168.847656 190.164062 173.929688 C 190.492188 174.269531 190.941406 174.453125 191.414062 174.453125 C 191.878906 174.453125 192.335938 174.269531 192.664062 173.929688 C 193.34375 173.238281 193.34375 172.128906 192.664062 171.425781 C 186.027344 164.804688 175.28125 164.804688 168.640625 171.425781 L 152.304688 187.65625 C 145.640625 194.316406 145.640625 205.125 152.304688 211.789062 C 158.96875 218.453125 169.773438 218.453125 176.4375 211.789062 L 192.664062 195.5625 C 193.34375 194.859375 193.34375 193.75 192.664062 193.058594 C 192.34375 192.703125 191.90625 192.5 191.429688 192.484375 C 190.957031 192.457031 190.5 192.625 190.164062 192.949219 " fill-opacity="1" fill-rule="nonzero"/><path fill="#5271ff" d="M 222.863281 141.230469 C 216.214844 134.625 205.484375 134.625 198.839844 141.230469 L 182.609375 157.457031 C 181.933594 158.160156 181.933594 159.265625 182.609375 159.960938 C 182.941406 160.300781 183.390625 160.484375 183.863281 160.484375 C 184.328125 160.484375 184.785156 160.300781 185.113281 159.960938 L 201.339844 143.734375 C 206.59375 138.480469 215.109375 138.480469 220.359375 143.734375 C 225.609375 148.984375 225.609375 157.5 220.359375 162.75 L 204.132812 178.980469 C 198.804688 184.0625 190.433594 184.0625 185.113281 178.980469 C 184.785156 178.640625 184.328125 178.453125 183.863281 178.453125 C 183.390625 178.453125 182.941406 178.640625 182.609375 178.980469 C 181.933594 179.679688 181.933594 180.78125 182.609375 181.480469 C 189.25 188.113281 199.996094 188.113281 206.636719 181.480469 L 222.863281 165.253906 C 229.464844 158.609375 229.464844 147.878906 222.863281 141.230469 " fill-opacity="1" fill-rule="nonzero"/><g clip-path="url(#7ca5e2f813)"><path fill="#5271ff" d="M 153.472656 164.128906 C 153.472656 163.15625 152.675781 162.363281 151.703125 162.363281 L 141.726562 162.363281 C 140.746094 162.363281 139.957031 163.15625 139.957031 164.128906 C 139.949219 164.601562 140.128906 165.058594 140.464844 165.398438 C 140.796875 165.738281 141.253906 165.921875 141.726562 165.921875 L 151.703125 165.921875 C 152.683594 165.90625 153.472656 165.101562 153.472656 164.128906 " fill-opacity="1" fill-rule="nonzero"/></g><g clip-path="url(#3f60714983)"><path fill="#5271ff" d="M 175.203125 142.398438 C 176.167969 142.378906 176.945312 141.59375 176.960938 140.628906 L 176.960938 130.652344 C 176.960938 129.671875 176.175781 128.882812 175.203125 128.882812 C 174.238281 128.902344 173.46875 129.6875 173.46875 130.652344 L 173.46875 140.628906 C 173.46875 141.59375 174.238281 142.378906 175.203125 142.398438 " fill-opacity="1" fill-rule="nonzero"/></g><path fill="#5271ff" d="M 156.1875 147.582031 C 156.507812 147.917969 156.957031 148.113281 157.421875 148.113281 C 157.886719 148.113281 158.332031 147.917969 158.65625 147.582031 C 158.992188 147.257812 159.1875 146.8125 159.1875 146.347656 C 159.1875 145.882812 158.992188 145.433594 158.65625 145.113281 L 151.601562 138.058594 C 151.152344 137.609375 150.503906 137.433594 149.886719 137.601562 C 149.277344 137.761719 148.804688 138.238281 148.632812 138.847656 C 148.472656 139.464844 148.652344 140.113281 149.097656 140.5625 L 156.1875 147.582031 " fill-opacity="1" fill-rule="nonzero"/><g clip-path="url(#9932b73b58)"><path fill="#5271ff" d="M 199.964844 210.621094 C 199 210.648438 198.222656 211.417969 198.203125 212.390625 L 198.203125 222.375 C 198.203125 223.347656 198.992188 224.132812 199.964844 224.132812 C 200.925781 224.117188 201.695312 223.332031 201.695312 222.375 L 201.695312 212.390625 C 201.695312 211.425781 200.925781 210.648438 199.964844 210.621094 " fill-opacity="1" fill-rule="nonzero"/></g><g clip-path="url(#0d9b1c22fc)"><path fill="#5271ff" d="M 233.441406 187.097656 L 223.460938 187.097656 C 222.5 187.113281 221.722656 187.890625 221.695312 188.855469 C 221.695312 189.835938 222.480469 190.621094 223.460938 190.621094 L 233.441406 190.621094 C 234.421875 190.621094 235.207031 189.835938 235.207031 188.855469 C 235.207031 187.882812 234.421875 187.097656 233.441406 187.097656 " fill-opacity="1" fill-rule="nonzero"/></g><path fill="#5271ff" d="M 218.980469 205.4375 C 218.542969 205 217.898438 204.828125 217.289062 204.988281 C 216.6875 205.152344 216.214844 205.617188 216.0625 206.222656 C 215.902344 206.824219 216.070312 207.46875 216.511719 207.90625 L 223.5625 214.960938 C 223.902344 215.273438 224.34375 215.449219 224.808594 215.457031 C 225.273438 215.449219 225.71875 215.273438 226.074219 214.960938 C 226.753906 214.265625 226.753906 213.148438 226.074219 212.457031 L 218.980469 205.4375 " fill-opacity="1" fill-rule="nonzero"/></svg>